{
  "accessors": [
    {
      "bufferView": 2,
      "componentType": 5126,
      "count": 65533,
      "max": [
        0.7798010110855103,
        0.7443990111351013,
        0.950419008731842
      ],
      "min": [
        -0.7027339935302734,
        -0.7435420155525208,
        -0.9300069808959961
      ],
      "type": "VEC3"
    },
    {
      "bufferView": 2,
      "byteOffset": 786396,
      "componentType": 5126,
      "count": 65533,
      "max": [
        0.999997615814209,
        0.9999679327011108,
        0.9999706745147705
      ],
      "min": [
        -0.9999868869781494,
        -0.999987006187439,
        -1.0
      ],
      "type": "VEC3"
    },
    {
      "bufferView": 3,
      "componentType": 5126,
      "count": 65533,
      "max": [
        0.9999957084655762,
        0.999896228313446,
        0.9999990463256836,
        1.0
      ],
      "min": [
        -0.9999186396598816,
        -0.999989926815033,
        -0.9999035000801086,
        -1.0
      ],
      "type": "VEC4"
    },
    {
      "bufferView": 1,
      "componentType": 5126,
      "count": 65533,
      "max": [
        0.9936299920082092,
        0.998009979724884
      ],
      "min": [
        0.001990000018849969,
        0.001990000018849969
      ],
      "type": "VEC2"
    },
    {
      "bufferView": 0,
      "componentType": 5125,
      "count": 202707,
      "type": "SCALAR"
    },
    {
      "bufferView": 2,
      "byteOffset": 1572792,
      "componentType": 5126,
      "count": 62948,
      "max": [
        0.7599809765815735,
        0.7445589900016785,
        0.9414910078048706
      ],
      "min": [
        -0.7795559763908386,
        -0.7435420155525208,
        -0.9449380040168762
      ],
      "type": "VEC3"
    },
    {
      "bufferView": 2,
      "byteOffset": 2328168,
      "componentType": 5126,
      "count": 62948,
      "max": [
        0.9999628067016602,
        0.9999724626541138,
        0.9999778270721436
      ],
      "min": [
        -0.999987006187439,
        -0.9999982118606567,
        -0.9999998807907104
      ],
      "type": "VEC3"
    },
    {
      "bufferView": 3,
      "byteOffset": 1048528,
      "componentType": 5126,
      "count": 62948,
      "max": [
        0.9999849796295166,
        0.9999971985816956,
        0.9999973177909851,
        1.0
      ],
      "min": [
        -0.9999673366546631,
        -0.9999983310699463,
        -0.999997079372406,
        -1.0
      ],
      "type": "VEC4"
    },
    {
      "bufferView": 1,
      "byteOffset": 524264,
      "componentType": 5126,
      "count": 62948,
      "max": [
        0.9936320185661316,
        0.9980049729347229
      ],
      "min": [
        0.001990000018849969,
        0.001990000018849969
      ],
      "type": "VEC2"
    },
    {
      "bufferView": 0,
      "byteOffset": 810828,
      "componentType": 5125,
      "count": 157293,
      "type": "SCALAR"
    }
  ],
  "asset": {
    "extras": {
      "author": "alexandermadrews (https://sketchfab.com/alexandermadrews)",
      "license": "CC-BY-4.0 (http://creativecommons.org/licenses/by/4.0/)",
      "source": "https://sketchfab.com/3d-models/animal-crossing-tree-ai-e05c50b12a6f48a88137816427c4f6f8",
      "title": "Animal Crossing Tree (AI)"
    },
    "generator": "Sketchfab-16.72.0",
    "version": "2.0"
  },
  "bufferViews": [
    {
      "buffer": 0,
      "byteLength": 1440000,
      "name": "floatBufferViews",
      "target": 34963
    },
    {
      "buffer": 0,
      "byteLength": 1027848,
      "byteOffset": 1440000,
      "byteStride": 8,
      "name": "floatBufferViews",
      "target": 34962
    },
    {
      "buffer": 0,
      "byteLength": 3083544,
      "byteOffset": 2467848,
      "byteStride": 12,
      "name": "floatBufferViews",
      "target": 34962
    },
    {
      "buffer": 0,
      "byteLength": 2055696,
      "byteOffset": 5551392,
      "byteStride": 16,
      "name": "floatBufferViews",
      "target": 34962
    }
  ],
  "buffers": [
    {
      "byteLength": 7607088,
      "uri": "scene.bin"
    }
  ],
  "images": [
    {
      "uri": "textures/material_0_baseColor.png"
    },
    {
      "uri": "textures/material_0_metallicRoughness.png"
    },
    {
      "uri": "textures/material_0_normal.png"
    }
  ],
  "materials": [
    {
      "doubleSided": true,
      "name": "material_0",
      "normalTexture": {
        "index": 2
      },
      "pbrMetallicRoughness": {
        "baseColorTexture": {
          "index": 0
        },
        "metallicRoughnessTexture": {
          "index": 1
        }
      }
    }
  ],
  "meshes": [
    {
      "name": "Object_0",
      "primitives": [
        {
          "attributes": {
            "NORMAL": 1,
            "POSITION": 0,
            "TANGENT": 2,
            "TEXCOORD_0": 3
          },
          "indices": 4,
          "material": 0,
          "mode": 4
        }
      ]
    },
    {
      "name": "Object_1",
      "primitives": [
        {
          "attributes": {
            "NORMAL": 6,
            "POSITION": 5,
            "TANGENT": 7,
            "TEXCOORD_0": 8
          },
          "indices": 9,
          "material": 0,
          "mode": 4
        }
      ]
    }
  ],
  "nodes": [
    {
      "children": [
        1
      ],
      "matrix": [
        1.0,
        0.0,
        0.0,
        0.0,
        0.0,
        2.220446049250313e-16,
        -1.0,
        0.0,
        0.0,
        1.0,
        2.220446049250313e-16,
        0.0,
        0.0,
        0.0,
        0.0,
        1.0
      ],
      "name": "Sketchfab_model"
    },
    {
      "children": [
        2,
        3
      ],
      "name": "base.obj.cleaner.materialmerger.gles"
    },
    {
      "mesh": 0,
      "name": "Object_2"
    },
    {
      "mesh": 1,
      "name": "Object_3"
    }
  ],
  "samplers": [
    {
      "magFilter": 9729,
      "minFilter": 9987,
      "wrapS": 10497,
      "wrapT": 10497
    }
  ],
  "scene": 0,
  "scenes": [
    {
      "name": "Sketchfab_Scene",
      "nodes": [
        0
      ]
    }
  ],
  "textures": [
    {
      "sampler": 0,
      "source": 0
    },
    {
      "sampler": 0,
      "source": 1
    },
    {
      "sampler": 0,
      "source": 2
    }
  ]
}
